# xmcd CD database file
#
# Track frame offsets:
#	150
#	13088
#	23631
#	39053
#	50178
#	61146
#	71354
#	84115
#	97393
#	107419
#
# Disc length: 1588 seconds
#
# Revision: 0
# Processed by: cddbd v1.5.2PL0 Copyright (c) Steve Scherf et al.
# Submitted via: CDex 1.70beta2
#
DISCID=7306320a
DTITLE=Statler Brothers - American Music Legends
DYEAR=2006
DGENRE=Country
TTITLE0=Do You Remember These?
TTITLE1=Flowers On the Wall
TTITLE2=Elizabeth
TTITLE3=(Oh Baby Mine) I Get So Lonely
TTITLE4=Bed Of Roses
TTITLE5=Hello, Mary Lou
TTITLE6=I'll Go to My Grave Loving You
TTITLE7=Charlotte's Web
TTITLE8=Do You Know You Know You Are My Sunshine
TTITLE9=The Class of '57
EXTD=YEAR: 2006
EXTT0=
EXTT1=
EXTT2=
EXTT3=
EXTT4=
EXTT5=
EXTT6=
EXTT7=
EXTT8=
EXTT9=
PLAYORDER=
